<?xml version="1.0" encoding="UTF-8"?>
<svg xmlns="http://www.w3.org/2000/svg" xmlns:xlink="http://www.w3.org/1999/xlink" width="400" height="300" version="1.1" overflow="visible">
	<defs>
		<symbol id="E050" viewBox="0 0 1000 1000" overflow="inherit">
			<g transform="scale(1,-1)">
				<path d="M441 -245c-23 -4 -48 -6 -76 -6c-59 0 -102 7 -130 20c-88 42 -150 93 -187 154c-26 44 -43 103 -48 176c-4 60 11 123 44 189c29 57 65 106 110 148s96 85 153 127c-3 16 -8 46 -13 92c-4 43 -5 73 -5 89c0 117 16 172 69 257c34 54 64 82 89 82c21 0 43 -30 69 -92 s39 -115 41 -159c2 -120 -19 -173 -67 -256c-13 -20 -63 -90 -98 -118c-13 -9 -25 -19 -37 -29l31 -181c8 1 18 2 28 2c58 0 102 -12 133 -35c59 -43 92 -104 98 -184c11 -135 -80 -229 -180 -270c8 -57 17 -110 25 -162c5 -31 6 -58 6 -80c0 -30 -5 -53 -14 -70 c-35 -64 -88 -99 -158 -103c-42 -3 -83 6 -124 26c-50 24 -77 59 -80 105c-2 34 5 63 20 87c18 28 45 42 79 44c51 4 99 -40 103 -87c4 -56 -30 -94 -105 -115c17 -24 51 -36 102 -36c62 0 116 43 140 85c9 16 13 41 13 74c0 20 -1 42 -5 67c-8 53 -18 106 -26 159zM461 939 c-95 0 -135 -175 -135 -286c0 -24 2 -48 5 -71c50 39 92 82 127 128c43 57 63 106 60 148c-4 54 -23 82 -57 81zM406 119l54 -326c80 27 116 88 109 184c-7 99 -62 146 -163 142zM382 117c-74 -2 -132 -50 -128 -127c2 -46 43 -99 75 -115c-3 -2 -7 -5 -10 -10 c-70 33 -116 88 -123 172c-5 73 42 135 88 170c23 17 49 29 78 36l-29 170c-21 -13 -52 -37 -92 -73c-50 -44 -86 -84 -109 -119c-49 -75 -71 -140 -67 -195c5 -68 35 -127 93 -176s125 -73 203 -73c25 0 50 3 75 9c-19 111 -36 221 -54 331z"/>
			</g>
		</symbol>
		<symbol id="E0A4" viewBox="0 0 1000 1000" overflow="inherit">
			<g transform="scale(1,-1)">
				<path d="M0 -39c0 68 73 172 200 172c66 0 114 -37 114 -95c0 -84 -106 -171 -218 -171c-64 0 -96 30 -96 94z"/>
			</g>
		</symbol>
	</defs>
	<svg id="definition-scale" viewBox="-20 240 1920 1080">
		<g class="page-margin" transform="translate(0, 0)" style="stroke: #000; stroke-opacity: 1.0; fill: #000; fill-opacity: 1.0">
			<g class="system" id="system-000000095855964">
				<path d="M0 405 L0 1155" style="stroke-width: 30;"/>
				<g class="measure" id="measure-000000181053356">
					<g class="staff" id="staff-000000194959144">
						<path d="M0 420 L1928 420" style="stroke-width: 30;"/>
						<path d="M0 600 L1928 600" style="stroke-width: 30;"/>
						<path d="M0 780 L1928 780" style="stroke-width: 30;"/>
						<path d="M0 960 L1928 960" style="stroke-width: 30;"/>
						<path d="M0 1140 L1928 1140" style="stroke-width: 30;"/>
						<g class="layer" id="layer-000000035831516">
							<g class="clef" id="clef-000000037584520">
								<use xlink:href="#E050" x="90" y="960" height="720px" width="720px"/>
							</g>
							<g class="beam" id="beam-000000158457582">
								<g class="note" id="note-000000002570074">
									<use xlink:href="#E0A4" x="915" y="1230" height="720px" width="720px"/>
								</g>
								<g class="note" id="note-000000028794960">
									<use xlink:href="#E0A4" x="1365" y="1140" height="720px" width="720px"/>
								</g>
								<path d="M1131 1208 L1131 576" style="stroke-width: 20;"/>
								<path d="M1581 1118 L1581 530" style="stroke-width: 20;"/>
								<polygon style="fill-rule:nonzero;" stroke-width="0" points="1121,556 1591,510 1591,600 1121,646 "/>
							</g>
						</g>
					</g>
				</g>
			</g>
		</g>
	</svg>
</svg>
